<svg version="1.1" id="Layer_1" xmlns="http://www.w3.org/2000/svg" xmlns:xlink="http://www.w3.org/1999/xlink" x="0px" y="0px"
	 width="96px" height="96px" viewBox="0 0 96 96" style="enable-background:new 0 0 96 96;" xml:space="preserve">
<rect style="display:none;fill:none;" width="96" height="96"/>
<g style="display:none;">
	<defs>
		<rect id="SVGID_1_" width="96" height="96"/>
	</defs>
	<clipPath id="SVGID_2_" style="display:inline;">
		<use xlink:href="#SVGID_1_"  style="overflow:visible;"/>
	</clipPath>
	<path style="display:inline;clip-path:url(#SVGID_2_);fill:#414141;" d="M77.373,78.351c1.195-1.339,2.272-2.736,3.237-4.18
		c1.086,0.638,1.771,1.529,2.112,2.762c0.182,0.634,0.837,1.01,1.476,0.831c0.638-0.178,1.019-0.843,0.838-1.479
		c-0.66-2.309-2.021-3.512-3.149-4.174c0.885-1.541,1.635-3.124,2.26-4.733c1.225,0.404,2.121,1.171,2.78,2.368
		c0.308,0.594,1.041,0.796,1.623,0.481c0.584-0.319,0.799-1.044,0.486-1.627c-1.086-2.026-2.674-3.008-4.104-3.489
		c0.517-1.685,0.907-3.391,1.133-5.104c1.431,0.067,2.545,0.617,3.458,1.688c0.372,0.498,1.183,0.564,1.688,0.141
		c0.508-0.429,0.578-1.186,0.15-1.689c-1.405-1.657-3.175-2.404-5.086-2.52c0.089-1.705,0.016-3.405-0.196-5.091
		c1.231-0.307,2.563-0.321,4.019,0.708c0.54,0.381,1.287,0.25,1.672-0.289c0.345-0.484,0.339-1.233-0.282-1.67
		c-2.116-1.486-4.136-1.473-5.804-1.091c-0.211-0.988-0.455-1.97-0.775-2.938c-0.223-0.683-0.484-1.321-0.763-1.937
		c1.124-0.799,2.418-1.418,4.387-0.69c0.62,0.229,1.311-0.089,1.544-0.708c0.17-0.455,0.114-1.238-0.7-1.544
		c-2.972-1.114-5.159-0.008-6.371,0.816c-0.85-1.334-1.844-2.461-2.95-3.368c0.85-1.93,1.818-2.905,3.689-3.086
		c0.66-0.064,1.164-0.653,1.082-1.309c-0.085-0.679-0.665-1.149-1.305-1.078c-3.455,0.386-4.749,2.636-5.493,4.106
		c-1.234-0.663-2.561-1.093-3.934-1.303c-0.283-1.205-0.703-3.405,1.191-4.855c0.528-0.404,0.616-1.237,0.083-1.771
		c-0.432-0.432-1.134-0.469-1.614-0.066c-2.711,2.26-2.42,4.876-2.144,6.556c-0.459,0.021-0.92,0.058-1.383,0.127
		C69.212,37.3,68.264,37.6,67.4,38.013c-1.155-0.87-2.333-1.782-1.924-3.952c0.075-0.402-0.058-1.182-0.957-1.395
		c-0.644-0.153-1.276,0.311-1.4,0.964c-0.57,3.041,0.939,4.744,2.166,5.771c-1.355,1.201-2.289,2.781-2.629,4.566
		c-0.934-0.148-1.828-0.518-2.667-1.118c-0.54-0.381-1.289-0.253-1.675,0.284c-0.384,0.539-0.242,1.306,0.272,1.674
		c1.2,0.853,2.532,1.361,3.91,1.54c-0.036,1.84-0.17,3.54-0.403,5.103c-0.905-0.309-1.774-0.846-2.592-1.635
		c-0.478-0.457-1.233-0.444-1.696,0.035c-0.455,0.471-0.449,1.219,0.012,1.68l0.015,0.015c1.17,1.132,2.447,1.895,3.806,2.292
		c-0.426,1.781-1.008,3.352-1.749,4.72c-0.984-0.749-1.739-1.624-2.167-2.536c-0.28-0.599-1.002-0.848-1.594-0.564
		c-0.599,0.285-0.855,1.002-0.572,1.602c0.604,1.294,1.67,2.499,3.021,3.502c-0.313,0.397-0.64,0.776-0.991,1.127
		c-0.832,0.831-1.793,1.555-2.886,2.175c-0.546-1.168-0.802-2.274-0.712-3.242c0.063-0.661-0.426-1.241-1.085-1.299
		c-0.659-0.056-1.214,0.452-1.306,1.091c-0.129,1.409,0.221,2.907,0.951,4.459c-1.453,0.567-3.09,0.998-4.917,1.286
		c-0.084-1.308,0.192-2.313,0.481-2.971c0.271-0.604-0.004-1.313-0.609-1.577c-0.604-0.266-1.311,0.012-1.58,0.621
		c-0.416,0.938-0.812,2.378-0.67,4.217c-1.224,0.107-2.517,0.164-3.89,0.167c-0.433,0.001-0.855,0.043-1.268,0.107
		c0.134-0.813,0.511-1.713,1.117-2.675c0.303-0.481,0.278-1.222-0.37-1.652c-0.551-0.366-1.302-0.18-1.657,0.382
		c-1.337,2.121-1.552,3.729-1.511,4.731c-1.428,0.741-2.616,1.92-3.453,3.419c-1.336-0.525-2.584-1.064-2.839-3.28
		c-0.086-0.645-0.678-1.116-1.334-1.042c-0.656,0.081-1.126,0.681-1.052,1.34c0.43,3.599,2.826,4.613,4.318,5.21
		c-0.437,1.279-0.458,3.113-0.376,4.107c-1.603,0.703-3.308,1.126-4.938-0.224c-0.508-0.421-1.264-0.349-1.69,0.163
		c-0.423,0.513-0.373,1.274,0.154,1.688c2.761,2.283,5.517,1.315,6.917,0.778c0.385,1.328,1.007,2.633,1.888,3.851
		c-0.877,1.28-1.926,2.694-4.175,2.525c-0.658-0.05-1.228,0.459-1.276,1.121c-0.047,0.663,0.454,1.231,1.119,1.271
		c3.272,0.206,4.919-1.658,5.953-3.065c1.063,1.013,2.36,1.913,3.894,2.663c-0.224,1.399-0.674,2.796-2.524,3.693
		c-0.595,0.288-0.846,1.008-0.561,1.604c0.298,0.57,1.002,0.844,1.602,0.553c2.655-1.291,3.452-3.452,3.753-4.911
		c1.333,0.483,3.297,0.92,4.929,1.152c0.085,1.258-0.15,2.57-1.471,3.857c-0.475,0.461-0.487,1.22-0.026,1.694
		c0.567,0.368,1.217,0.485,1.698,0.018c1.85-1.803,2.234-3.735,2.201-5.334c1.711,0.097,3.434,0.049,5.152-0.156
		c0.306,1.062,0.369,2.36-0.535,3.86c-0.34,0.569-0.191,1.328,0.408,1.644c0.566,0.339,1.303,0.153,1.646-0.413
		c1.049-1.742,1.324-3.541,0.85-5.463c1.696-0.337,3.376-0.831,5.03-1.452c0.582,1.172,0.661,2.334,0.237,3.6
		c-0.213,0.631,0.128,1.303,0.753,1.517c0.626,0.209,1.307-0.135,1.518-0.762c0.611-1.818,0.505-3.588-0.29-5.281
		c1.579-0.724,3.125-1.575,4.623-2.556c0.597,0.799,1.039,1.849,0.883,3.402c-0.071,0.667,0.415,1.247,1.071,1.312
		c0.66,0.061,1.247-0.421,1.313-1.078c0.232-2.299-0.475-3.889-1.302-5.015c1.383-1.039,2.722-2.183,3.993-3.443
		c0.722,0.668,1.405,1.648,1.536,3.147c0.06,0.656,0.631,1.142,1.299,1.086c0.658-0.06,1.134-0.645,1.09-1.302
		C79.539,81.185,78.785,79.677,77.373,78.351z M43.921,86.732c-6.869-2.277-9.223-7.674-8.507-12.021
		c0.431-2.624,2.246-5.691,5.942-5.701c8.289-0.021,14.15-1.863,17.921-5.634c3.766-3.766,5.608-9.627,5.633-17.92
		c0.011-3.695,3.076-5.512,5.699-5.944c4.34-0.716,9.748,1.637,12.022,8.508c3.34,10.095,0.098,21.686-8.464,30.247
		C65.605,86.831,54.015,90.073,43.921,86.732z"/>
	<path style="display:inline;clip-path:url(#SVGID_2_);fill:#414141;" d="M16.943,11.982c-0.659-0.045-1.244,0.43-1.302,1.087
		c-0.055,0.668,0.433,1.24,1.093,1.303c1.503,0.134,2.487,0.82,3.159,1.543c-1.261,1.27-2.403,2.604-3.442,3.986
		c-1.13-0.831-2.727-1.542-5.031-1.315c-0.659,0.063-1.141,0.651-1.078,1.311c0.067,0.655,0.65,1.144,1.317,1.075
		c1.558-0.152,2.612,0.292,3.415,0.893c-0.979,1.496-1.829,3.039-2.551,4.617c-1.7-0.801-3.474-0.911-5.296-0.304
		c-0.627,0.209-0.969,0.888-0.758,1.516c0.215,0.627,0.89,0.968,1.522,0.757c1.267-0.421,2.433-0.339,3.609,0.246
		c-0.618,1.653-1.108,3.332-1.443,5.027c-1.927-0.479-3.731-0.208-5.474,0.836c-0.568,0.342-0.752,1.079-0.41,1.646
		c0.317,0.601,1.08,0.752,1.649,0.413c1.501-0.9,2.805-0.834,3.869-0.524c-0.201,1.719-0.244,3.44-0.143,5.153
		c-1.603-0.039-3.541,0.342-5.342,2.188c-0.468,0.48-0.349,1.129,0.022,1.698c0.477,0.462,1.237,0.451,1.698-0.022
		c1.288-1.316,2.603-1.55,3.864-1.461c0.237,1.633,0.68,3.6,1.168,4.934c-1.461,0.299-3.627,1.09-4.914,3.742
		c-0.291,0.598-0.015,1.304,0.558,1.604c0.599,0.287,1.32,0.038,1.607-0.557c0.895-1.849,2.294-2.296,3.696-2.516
		c0.757,1.537,1.664,2.837,2.681,3.902c-1.408,1.031-3.273,2.673-3.058,5.947c0.042,0.664,0.613,1.168,1.277,1.121
		c0.664-0.046,1.173-0.615,1.121-1.274c-0.176-2.248,1.24-3.294,2.521-4.167c1.223,0.883,2.533,1.508,3.866,1.897
		c-0.536,1.399-1.498,4.154,0.798,6.92c0.417,0.528,1.181,0.581,1.693,0.159c0.512-0.424,0.583-1.182,0.16-1.689
		c-1.358-1.633-0.939-3.339-0.238-4.94c0.998,0.086,2.836,0.069,4.117-0.364c0.603,1.493,1.626,3.893,5.236,4.332
		c0.66,0.076,1.26-0.393,1.34-1.049c0.073-0.655-0.402-1.248-1.048-1.337c-2.221-0.262-2.766-1.512-3.297-2.849
		c1.501-0.834,2.68-2.018,3.419-3.444c1.004,0.043,2.617-0.168,4.74-1.5c0.563-0.353,0.747-1.103,0.379-1.656
		c-0.434-0.649-1.176-0.675-1.658-0.374c-0.964,0.605-1.865,0.979-2.68,1.111c0.064-0.414,0.104-0.835,0.104-1.269
		c0-1.372,0.053-2.668,0.157-3.892c1.844,0.147,3.287-0.245,4.226-0.657c0.61-0.269,0.888-0.976,0.62-1.58
		c-0.267-0.606-0.979-0.884-1.583-0.614c-0.659,0.287-1.667,0.563-2.978,0.474c0.285-1.826,0.711-3.461,1.277-4.915
		c1.558,0.737,3.062,1.09,4.473,0.963c0.64-0.088,1.148-0.643,1.092-1.303c-0.061-0.657-0.644-1.147-1.307-1.088
		c-0.969,0.088-2.081-0.171-3.252-0.721c0.618-1.092,1.34-2.051,2.172-2.879c0.352-0.352,0.73-0.679,1.127-0.99
		c1.01,1.354,2.222,2.423,3.52,3.032c0.603,0.284,1.32,0.028,1.605-0.569c0.282-0.592,0.03-1.313-0.57-1.597
		c-0.915-0.43-1.795-1.187-2.549-2.173c1.369-0.738,2.943-1.316,4.729-1.738c0.401,1.361,1.17,2.64,2.307,3.813l0.016,0.015
		c0.463,0.463,1.213,0.469,1.684,0.018c0.479-0.463,0.491-1.22,0.032-1.698c-0.794-0.819-1.335-1.69-1.647-2.597
		c1.566-0.229,3.27-0.358,5.115-0.391c0.184,1.379,0.697,2.714,1.555,3.917c0.37,0.515,1.14,0.658,1.679,0.276
		c0.538-0.385,0.664-1.134,0.28-1.675c-0.604-0.841-0.977-1.737-1.128-2.67c1.79-0.336,3.371-1.266,4.571-2.618
		c1.033,1.229,2.744,2.744,5.792,2.182c0.655-0.122,1.118-0.754,0.964-1.397c-0.218-0.9-0.999-1.036-1.402-0.962
		c-2.175,0.404-3.091-0.776-3.967-1.935c0.411-0.862,0.71-1.81,0.86-2.828c0.068-0.462,0.104-0.923,0.123-1.382
		c1.686,0.28,4.31,0.579,6.569-2.127c0.401-0.479,0.361-1.182-0.072-1.614c-0.536-0.534-1.371-0.449-1.775,0.078
		c-1.448,1.892-3.655,1.466-4.863,1.178c-0.216-1.373-0.649-2.7-1.318-3.937c1.474-0.74,3.725-2.029,4.104-5.484
		c0.07-0.639-0.404-1.221-1.085-1.307c-0.658-0.085-1.247,0.418-1.31,1.078c-0.176,1.871-1.152,2.839-3.085,3.683
		c-0.912-1.109-2.044-2.106-3.384-2.96c0.823-1.211,1.926-3.395,0.801-6.371c-0.309-0.815-1.095-0.872-1.55-0.703
		c-0.619,0.23-0.936,0.922-0.705,1.543c0.735,1.969,0.118,3.263-0.681,4.385c-0.619-0.279-1.26-0.543-1.943-0.768
		c-0.972-0.323-1.957-0.57-2.949-0.784c0.379-1.668,0.388-3.688-1.107-5.808c-0.439-0.622-1.189-0.629-1.676-0.286
		c-0.54,0.383-0.668,1.13-0.284,1.671c1.035,1.459,1.024,2.79,0.72,4.021c-1.691-0.217-3.396-0.294-5.105-0.211
		c-0.121-1.911-0.874-3.683-2.539-5.092c-0.507-0.43-1.266-0.361-1.694,0.146c-0.424,0.505-0.355,1.315,0.146,1.689
		c1.076,0.915,1.629,2.031,1.701,3.462c-1.717,0.222-3.426,0.608-5.115,1.121c-0.485-1.433-1.474-3.022-3.509-4.114
		c-0.585-0.313-1.311-0.101-1.629,0.481c-0.313,0.582-0.109,1.316,0.487,1.626c1.203,0.663,1.973,1.56,2.383,2.787
		c-1.613,0.62-3.199,1.366-4.74,2.247c-0.667-1.13-1.878-2.495-4.194-3.161c-0.639-0.183-1.304,0.197-1.481,0.835
		c-0.178,0.639,0.201,1.294,0.837,1.479c1.237,0.344,2.132,1.031,2.775,2.119c-1.445,0.961-2.844,2.035-4.183,3.227
		C20.284,12.869,18.771,12.11,16.943,11.982z M52.014,9.105c6.895,2.292,9.269,7.708,8.562,12.047
		c-0.426,2.622-2.239,5.684-5.945,5.685c-8.313,0.002-14.186,1.831-17.952,5.588c-3.77,3.76-5.603,9.618-5.601,17.909
		c0,3.697-3.071,5.505-5.701,5.929c-4.356,0.704-9.772-1.664-12.074-8.539c-3.376-10.107-0.156-21.691,8.406-30.233
		C30.269,8.95,41.883,5.737,52.014,9.105z"/>
	<path style="display:inline;clip-path:url(#SVGID_2_);fill:#414141;" d="M31.909,27.672c3.664-3.654,9.671-6.865,15.543-4.91
		c1.525,0.507,3.155,0.392,4.594-0.327c1.435-0.716,2.532-1.938,3.01-3.465c1.158-3.694-1.186-6.744-3.801-7.589
		c-11.277-3.643-21.645,1.62-27.848,7.81c-2.345,2.339-2.345,6.143,0,8.481C25.751,30.011,29.564,30.011,31.909,27.672z
		 M25.107,25.976c-1.406-1.403-1.404-3.688,0-5.089c5.696-5.683,15.355-10.564,25.389-7.228c1.835,0.604,2.892,2.719,2.278,4.553
		c-0.302,0.91-0.945,1.647-1.807,2.08c-0.86,0.427-1.841,0.497-2.755,0.193c-6.91-2.301-13.833,1.328-18.004,5.489
		C28.804,27.377,26.513,27.379,25.107,25.976z"/>
</g>
<g style="display:none;">
	<defs>
		<rect id="SVGID_3_" width="96" height="96"/>
	</defs>
	<clipPath id="SVGID_4_" style="display:inline;">
		<use xlink:href="#SVGID_3_"  style="overflow:visible;"/>
	</clipPath>
	<g style="display:inline;clip-path:url(#SVGID_4_);">
		<path style="fill:#414141;" d="M48.28,0C21.659,0,0,21.659,0,48.28c0,26.624,21.659,48.28,48.28,48.28
			c26.621,0,48.28-21.656,48.28-48.28C96.561,21.659,74.901,0,48.28,0z M48.28,94.205c-25.322,0-45.925-20.603-45.925-45.925
			S22.958,2.355,48.28,2.355S94.205,22.958,94.205,48.28S73.603,94.205,48.28,94.205z"/>
		<path style="fill:#414141;" d="M48.28,4.711c-24.025,0-43.57,19.544-43.57,43.569c0,24.024,19.545,43.57,43.57,43.57
			c24.024,0,43.57-19.546,43.57-43.57C91.851,24.255,72.305,4.711,48.28,4.711z M48.28,89.495
			c-22.726,0-41.215-18.486-41.215-41.215c0-22.726,18.489-41.215,41.215-41.215S89.495,25.555,89.495,48.28
			C89.495,71.009,71.006,89.495,48.28,89.495z"/>
		<path style="fill:#414141;" d="M45.925,28.262c4.545,0,8.243-3.699,8.243-8.243s-3.697-8.244-8.243-8.244
			c-4.545,0-8.243,3.699-8.243,8.244S41.38,28.262,45.925,28.262z M45.925,14.131c3.248,0,5.887,2.641,5.887,5.888
			s-2.64,5.888-5.887,5.888s-5.888-2.641-5.888-5.888S42.678,14.131,45.925,14.131z"/>
		<path style="fill:#414141;" d="M24.729,44.748c4.544,0,8.243-3.699,8.243-8.243c0-4.545-3.698-8.243-8.243-8.243
			s-8.243,3.698-8.243,8.243C16.486,41.049,20.185,44.748,24.729,44.748z M24.729,30.617c3.248,0,5.888,2.641,5.888,5.888
			c0,3.248-2.64,5.888-5.888,5.888s-5.888-2.64-5.888-5.888C18.841,33.257,21.481,30.617,24.729,30.617z"/>
		<path style="fill:#414141;" d="M55.346,70.653c-3.248,0-5.888,2.641-5.888,5.889s2.64,5.888,5.888,5.888
			c3.247,0,5.888-2.64,5.888-5.888S58.593,70.653,55.346,70.653z M55.346,80.074c-1.948,0-3.533-1.587-3.533-3.532
			c0-1.946,1.585-3.532,3.533-3.532s3.532,1.586,3.532,3.532C58.878,78.487,57.294,80.074,55.346,80.074z"/>
		<path style="fill:#414141;" d="M35.36,74.745c0.882-0.313,1.861-1.263,1.925-3.914c2.664,0.179,3.685-0.686,4.089-1.529
			c0.401-0.845,0.421-2.208-1.407-4.131c2.009-1.729,2.122-3.089,1.808-3.972c-0.315-0.881-1.265-1.861-3.915-1.923
			c0.198-2.645-0.683-3.689-1.53-4.089c-0.844-0.391-2.212-0.417-4.13,1.407c-1.73-2.011-3.087-2.115-3.972-1.81
			c-0.88,0.314-1.86,1.267-1.925,3.916c-2.638-0.212-3.686,0.683-4.086,1.528s-0.422,2.21,1.407,4.129
			c-2.01,1.729-2.125,3.089-1.81,3.973c0.315,0.879,1.265,1.858,3.917,1.925c-0.199,2.643,0.68,3.685,1.527,4.087
			c0.854,0.4,2.219,0.423,4.131-1.405C32.676,74.433,34.074,75.202,35.36,74.745z M32.446,70.451
			c-0.208-0.301-0.545-0.49-0.911-0.506c-0.422,0-0.732,0.149-0.955,0.414c-1.364,1.605-2.196,1.863-2.291,1.87
			c-0.108-0.102-0.433-0.909-0.053-2.981c0.063-0.36-0.042-0.729-0.285-1c-0.246-0.271-0.594-0.391-0.969-0.384
			c-2.114,0.158-2.875-0.234-2.946-0.297c-0.002-0.149,0.338-0.952,2.07-2.15c0.301-0.209,0.488-0.545,0.506-0.911
			c0.018-0.365-0.133-0.717-0.411-0.954c-1.608-1.366-1.866-2.196-1.873-2.29c0.105-0.106,0.915-0.436,2.985-0.056
			c0.366,0.068,0.731-0.041,1-0.287c0.271-0.244,0.412-0.603,0.381-0.967c-0.17-2.102,0.235-2.873,0.295-2.943
			c0.002,0,0.002,0,0.002,0c0.156,0,0.955,0.348,2.148,2.07c0.21,0.301,0.545,0.487,0.911,0.505
			c0.368,0.044,0.718-0.136,0.955-0.411c1.363-1.605,2.196-1.864,2.291-1.872c0.108,0.104,0.434,0.908,0.055,2.982
			c-0.064,0.362,0.041,0.732,0.285,1.003c0.249,0.271,0.651,0.419,0.969,0.382c1.994-0.151,2.78,0.188,2.941,0.329
			c-0.034,0.207-0.429,0.981-2.065,2.116c-0.301,0.209-0.488,0.545-0.506,0.908c-0.019,0.365,0.134,0.72,0.412,0.957
			c1.605,1.366,1.865,2.196,1.872,2.29c-0.105,0.108-0.915,0.438-2.983,0.056c-0.359-0.058-0.731,0.039-1.002,0.285
			c-0.272,0.246-0.412,0.604-0.382,0.968c0.17,2.101-0.235,2.873-0.297,2.944c-0.001,0-0.001,0-0.001,0
			C34.438,72.521,33.639,72.177,32.446,70.451z"/>
		<path style="fill:#414141;" d="M71.831,51.813c-4.544,0-8.243,3.699-8.243,8.243c0,4.545,3.699,8.243,8.243,8.243
			c4.545,0,8.244-3.698,8.244-8.243C80.075,55.512,76.376,51.813,71.831,51.813z M71.831,65.943c-3.247,0-5.888-2.64-5.888-5.888
			c0-3.247,2.641-5.888,5.888-5.888c3.248,0,5.889,2.641,5.889,5.888C77.72,63.304,75.079,65.943,71.831,65.943z"/>
		<path style="fill:#414141;" d="M54.168,43.57c0-3.247-2.641-5.888-5.888-5.888c-3.248,0-5.888,2.641-5.888,5.888
			s2.64,5.888,5.888,5.888C51.527,49.458,54.168,46.817,54.168,43.57z M48.28,47.103c-1.948,0-3.533-1.586-3.533-3.532
			c0-1.946,1.585-3.532,3.533-3.532c1.948,0,3.532,1.586,3.532,3.532C51.813,45.516,50.229,47.103,48.28,47.103z"/>
		<path style="fill:#414141;" d="M66.966,40.729c0.245,1.958,0.982,3.374,2.306,3.706c0.907,0.227,2.248-0.021,3.771-2.193
			c2.118,1.625,3.448,1.471,4.252,0.991c0.801-0.481,1.572-1.604,1.116-4.218c2.632-0.327,3.478-1.396,3.704-2.306
			c0.227-0.908-0.021-2.25-2.192-3.77c1.629-2.092,1.475-3.449,0.991-4.251c-0.486-0.793-1.612-1.572-4.22-1.117
			c-0.326-2.631-1.397-3.471-2.304-3.706c-0.908-0.226-2.251,0.024-3.772,2.194c-2.079-1.637-3.448-1.474-4.249-0.992
			c-0.802,0.483-1.573,1.607-1.115,4.219c-2.632,0.326-3.48,1.394-3.707,2.304c-0.226,0.906,0.022,2.249,2.194,3.772
			c-1.628,2.09-1.475,3.444-0.993,4.248C63.237,40.417,64.362,41.192,66.966,40.729z M66.387,35.913
			c0.254-0.265,0.369-0.631,0.316-0.991c-0.055-0.363-0.277-0.655-0.593-0.856c-1.849-1.038-2.264-1.788-2.29-1.879
			c0.082-0.125,0.81-0.606,2.916-0.644c0.366-0.007,0.708-0.184,0.925-0.479c0.218-0.293,0.287-0.67,0.187-1.021
			c-0.582-2.028-0.337-2.862-0.291-2.945c0.147-0.029,1.004,0.145,2.517,1.608c0.267,0.26,0.632,0.371,0.993,0.315
			c0.36-0.053,0.676-0.273,0.853-0.593c1.022-1.845,1.786-2.262,1.876-2.288c0.002,0.001,0.002,0.001,0.002,0.001
			c0.13,0.087,0.602,0.818,0.642,2.914c0.007,0.366,0.184,0.708,0.478,0.926c0.282,0.24,0.673,0.284,1.022,0.186
			c2.024-0.581,2.862-0.335,2.944-0.29c0.032,0.146-0.141,0.997-1.605,2.514c-0.254,0.265-0.371,0.631-0.318,0.993
			c0.057,0.364,0.31,0.709,0.595,0.854c1.744,0.979,2.211,1.697,2.267,1.904c-0.143,0.153-0.902,0.579-2.892,0.617
			c-0.367,0.007-0.708,0.184-0.925,0.477c-0.217,0.293-0.287,0.672-0.187,1.024c0.58,2.026,0.337,2.862,0.29,2.944
			c-0.148,0.032-1.005-0.144-2.515-1.606c-0.267-0.247-0.63-0.373-0.992-0.317c-0.362,0.055-0.679,0.275-0.855,0.594
			c-1.021,1.842-1.786,2.262-1.877,2.287c-0.002-0.001-0.002-0.001-0.002-0.001c-0.13-0.087-0.604-0.816-0.643-2.914
			c-0.004-0.365-0.182-0.71-0.478-0.926c-0.352-0.233-0.691-0.281-1.023-0.184c-2.024,0.581-2.861,0.334-2.943,0.288
			C64.746,38.278,64.922,37.427,66.387,35.913z"/>
	</g>
</g>
<g style="display:none;">
	<defs>
		<rect id="SVGID_5_" width="96" height="96"/>
	</defs>
	<clipPath id="SVGID_6_" style="display:inline;">
		<use xlink:href="#SVGID_5_"  style="overflow:visible;"/>
	</clipPath>
	<g style="display:inline;clip-path:url(#SVGID_6_);">
		<path style="fill:#414141;" d="M48.155,96.309c26.553,0,48.153-21.599,48.153-48.152S74.708,0,48.155,0
			C21.602,0,0,21.603,0,48.156S21.602,96.309,48.155,96.309z M48.155,2.35c25.255,0,45.806,20.549,45.806,45.807
			c0,25.256-20.551,45.805-45.806,45.805c-25.257,0-45.806-20.549-45.806-45.805C2.349,22.899,22.898,2.35,48.155,2.35z"/>
		<path style="fill:#414141;" d="M48.155,86.913c21.371,0,38.758-17.387,38.758-38.757c0-21.372-17.387-38.76-38.758-38.76
			S9.396,26.785,9.396,48.156C9.396,69.526,26.784,86.913,48.155,86.913z M48.155,11.746c20.077,0,36.41,16.333,36.41,36.411
			c0,20.076-16.333,36.409-36.41,36.409s-36.41-16.333-36.41-36.409C11.745,28.079,28.078,11.746,48.155,11.746z"/>
		<path style="fill:#414141;" d="M34.061,72.818c5.829,0,10.571-4.743,10.571-10.569c0-5.827-4.742-10.571-10.571-10.571
			c-5.829,0-10.571,4.744-10.571,10.571C23.49,68.075,28.232,72.818,34.061,72.818z M34.061,54.027c4.533,0,8.222,3.688,8.222,8.222
			c0,4.532-3.689,8.222-8.222,8.222s-8.222-3.689-8.222-8.222C25.839,57.716,29.528,54.027,34.061,54.027z"/>
		<path style="fill:#414141;" d="M69.295,58.724c4.533,0,8.223-3.688,8.223-8.218c0-4.533-3.689-8.222-8.223-8.222
			c-4.532,0-8.222,3.689-8.222,8.222C61.073,55.036,64.763,58.724,69.295,58.724z M69.295,44.633c3.241,0,5.875,2.633,5.875,5.873
			c0,3.236-2.634,5.87-5.875,5.87c-3.238,0-5.872-2.634-5.872-5.87C63.423,47.266,66.057,44.633,69.295,44.633z"/>
		<path style="fill:#414141;" d="M45.806,35.236c4.534,0,8.221-3.688,8.221-8.222c0-4.533-3.688-8.222-8.221-8.222
			c-4.533,0-8.222,3.689-8.222,8.222C37.584,31.548,41.273,35.236,45.806,35.236z M45.806,21.142c3.24,0,5.874,2.634,5.874,5.873
			s-2.634,5.873-5.874,5.873c-3.239,0-5.873-2.633-5.873-5.873S42.567,21.142,45.806,21.142z"/>
		<path style="fill:#414141;" d="M33.231,44.289c0.458,0.459,1.202,0.459,1.661,0c0.458-0.459,0.458-1.202,0-1.661l-9.396-9.396
			c-0.459-0.458-1.202-0.458-1.661,0c-0.459,0.459-0.459,1.202,0,1.661L33.231,44.289z"/>
		<path style="fill:#414141;" d="M61.419,61.419l-9.396,9.396c-0.458,0.458-0.458,1.202,0,1.66s1.203,0.458,1.661,0l9.396-9.396
			c0.458-0.46,0.458-1.202,0-1.66C62.621,60.959,61.877,60.959,61.419,61.419z"/>
		<path style="fill:#414141;" d="M65.896,34.587c0.292,0.578,0.99,0.815,1.576,0.526c0.58-0.292,0.814-0.996,0.524-1.577
			l-4.698-9.396c-0.29-0.578-0.991-0.814-1.575-0.526c-0.58,0.292-0.814,0.996-0.524,1.576L65.896,34.587z"/>
		<path style="fill:#414141;" d="M53.684,42.627c-0.458-0.458-1.203-0.458-1.661,0l-4.698,4.699c-0.459,0.459-0.459,1.202,0,1.66
			c0.459,0.46,1.202,0.46,1.661,0l4.698-4.698C54.142,43.83,54.142,43.086,53.684,42.627z"/>
	</g>
</g>
<g style="display:none;">
	<defs>
		<rect id="SVGID_7_" width="96" height="96"/>
	</defs>
	<clipPath id="SVGID_8_" style="display:inline;">
		<use xlink:href="#SVGID_7_"  style="overflow:visible;"/>
	</clipPath>
	<g id="XMLID_117_" style="display:inline;clip-path:url(#SVGID_8_);">
		<g id="XMLID_535_">
			<g id="XMLID_303_">
				<path style="fill:#1E1E1E;" d="M60.173,37.969c-1.236,0-2.351-0.611-2.979-1.635l-0.37-0.593
					c-1.012-1.647-0.496-3.857,1.147-4.935c3.247-2.125,6.417-4.449,9.422-6.906c0.659-0.538,1.488-0.833,2.332-0.833
					c1.046,0,2.032,0.447,2.706,1.229l0.464,0.539c0.604,0.7,0.896,1.608,0.815,2.553c-0.085,0.986-0.587,1.918-1.369,2.561
					c-3.217,2.63-6.614,5.118-10.095,7.394C61.624,37.753,60.906,37.969,60.173,37.969z M69.725,25.022
					c-0.394,0-0.785,0.139-1.094,0.393c-3.058,2.501-6.285,4.866-9.591,7.028c-0.765,0.501-1.017,1.521-0.556,2.27l0.363,0.583
					c0.28,0.455,0.772,0.718,1.325,0.718c0.352,0,0.7-0.105,1.006-0.306c3.421-2.237,6.759-4.686,9.924-7.273
					c0.386-0.313,0.619-0.746,0.658-1.216c0.037-0.414-0.088-0.808-0.347-1.108l-0.464-0.539
					C70.647,25.224,70.203,25.022,69.725,25.022z"/>
			</g>
			<g id="XMLID_302_">
				<path style="fill:#1E1E1E;" d="M35.224,32.854c-1.887,0-3.482-1.451-3.631-3.302l-0.055-0.707
					c-0.074-0.924,0.228-1.829,0.853-2.542c0.652-0.744,1.605-1.203,2.617-1.254c4.135-0.219,8.338-0.219,12.475,0
					c1.012,0.051,1.966,0.51,2.616,1.254c0.625,0.714,0.928,1.618,0.854,2.546l-0.054,0.699c-0.156,1.92-1.857,3.403-3.829,3.301
					c-3.862-0.205-7.787-0.205-11.649,0C35.354,32.852,35.288,32.854,35.224,32.854z M41.244,26.836c-2.036,0-4.1,0.055-6.135,0.162
					c-0.494,0.027-0.938,0.236-1.249,0.591c-0.273,0.313-0.406,0.703-0.375,1.101l0.054,0.707c0.07,0.869,0.863,1.543,1.777,1.499
					c3.929-0.208,7.925-0.208,11.855,0c0.906,0.048,1.705-0.629,1.776-1.502l0.053-0.7c0.033-0.401-0.101-0.791-0.374-1.104
					c-0.31-0.355-0.754-0.564-1.249-0.591C45.345,26.891,43.281,26.836,41.244,26.836z"/>
			</g>
			<g id="XMLID_306_">
				<path style="fill:#1E1E1E;" d="M29.469,59.37c-1.104,0-2.15-0.504-2.868-1.384c-2.631-3.217-5.12-6.613-7.395-10.092
					c-0.559-0.854-0.756-1.898-0.538-2.869c0.207-0.924,0.755-1.701,1.546-2.188l0.594-0.368c0.561-0.346,1.202-0.526,1.856-0.526
					c1.24,0,2.391,0.626,3.078,1.675c2.125,3.249,4.449,6.419,6.905,9.422c1.26,1.543,1.086,3.756-0.395,5.038l-0.539,0.463
					C31.098,59.075,30.299,59.37,29.469,59.37z M22.665,43.897c-0.294,0-0.58,0.081-0.829,0.233l-0.595,0.371
					c-0.34,0.209-0.576,0.546-0.666,0.951c-0.104,0.463-0.01,0.951,0.265,1.372c2.239,3.421,4.686,6.761,7.273,9.927
					c0.346,0.421,0.839,0.663,1.355,0.663c0.367,0,0.701-0.124,0.971-0.355l0.537-0.463c0.663-0.57,0.734-1.612,0.159-2.317
					c-2.5-3.057-4.865-6.283-7.028-9.59C23.783,44.193,23.243,43.897,22.665,43.897z"/>
			</g>
			<g id="XMLID_305_">
				<path style="fill:#1E1E1E;" d="M67.351,59.37c-2.069,0-4.169-0.056-6.237-0.167c-1.011-0.052-1.966-0.511-2.617-1.253
					c-0.624-0.715-0.925-1.619-0.851-2.547l0.053-0.7c0.154-1.919,1.857-3.404,3.828-3.3c3.863,0.204,7.785,0.204,11.65,0
					c1.979-0.104,3.672,1.381,3.827,3.297l0.055,0.706c0.074,0.925-0.227,1.829-0.852,2.544c-0.652,0.742-1.608,1.201-2.618,1.253
					C71.521,59.314,69.424,59.37,67.351,59.37z M61.33,53.352c-0.875,0-1.615,0.662-1.681,1.505l-0.056,0.7
					c-0.031,0.402,0.101,0.792,0.376,1.104c0.309,0.356,0.752,0.565,1.248,0.592c4.069,0.215,8.205,0.215,12.267,0
					c0.496-0.026,0.938-0.235,1.25-0.592c0.272-0.312,0.406-0.701,0.374-1.1l-0.053-0.708c-0.071-0.868-0.866-1.548-1.777-1.499
					c-3.93,0.21-7.925,0.21-11.854,0C61.394,53.353,61.361,53.352,61.33,53.352z"/>
			</g>
			<g id="XMLID_304_">
				<path style="fill:#1E1E1E;" d="M48.284,75.745c-0.091,0-0.183-0.003-0.276-0.01l-0.698-0.053
					c-1.926-0.155-3.405-1.877-3.302-3.83c0.205-3.861,0.205-7.781,0-11.648c-0.104-1.954,1.376-3.672,3.297-3.826l0.706-0.055
					c0.09-0.009,0.182-0.012,0.272-0.012c1.875,0,3.423,1.53,3.526,3.481c0.221,4.136,0.221,8.332,0,12.477
					C51.707,74.219,50.159,75.745,48.284,75.745z M48.284,58.268c-0.039,0-0.079,0-0.119,0.001l-0.706,0.058
					c-0.873,0.069-1.547,0.868-1.499,1.776c0.208,3.933,0.208,7.921,0,11.854c-0.048,0.909,0.626,1.704,1.503,1.776l0.697,0.055
					c0.045,0.001,0.083,0.004,0.123,0.004c0.834,0,1.525-0.718,1.573-1.628c0.215-4.072,0.215-8.201,0-12.269
					C49.81,58.979,49.118,58.268,48.284,58.268z"/>
			</g>
		</g>
		<g id="XMLID_291_">
			<path style="fill:#1E1E1E;" d="M47.989,95.977C21.527,95.977,0,74.449,0,47.988C0,21.527,21.527,0,47.989,0
				c26.46,0,47.989,21.527,47.989,47.988C95.978,74.449,74.449,95.977,47.989,95.977z M47.989,1.954
				c-25.383,0-46.034,20.651-46.034,46.034c0,25.384,20.65,46.033,46.034,46.033s46.033-20.649,46.033-46.033
				C94.021,22.605,73.372,1.954,47.989,1.954z"/>
		</g>
		<g id="XMLID_299_">
			<path style="fill:#1E1E1E;" d="M47.989,88.996c-18.774,0-35.118-12.709-39.746-30.899c-0.133-0.524,0.182-1.059,0.705-1.19
				c0.524-0.133,1.055,0.183,1.19,0.706c4.406,17.328,19.972,29.427,37.851,29.427c21.534,0,39.051-17.52,39.051-39.051
				c0-21.534-17.518-39.052-39.051-39.052S8.938,26.455,8.938,47.988c0,0.541-0.439,0.978-0.979,0.978s-0.978-0.438-0.978-0.978
				c0-22.611,18.396-41.006,41.007-41.006c22.61,0,41.006,18.395,41.006,41.006C88.995,70.598,70.599,88.996,47.989,88.996z"/>
		</g>
		<g id="XMLID_526_">
			<g id="XMLID_309_">
				<path style="fill:#1E1E1E;" d="M64.121,80.339c-0.355,0-0.695-0.193-0.87-0.529c-0.247-0.481-0.059-1.068,0.42-1.314
					c9.195-4.749,15.707-13.247,17.865-23.317c0.111-0.528,0.632-0.863,1.159-0.75c0.527,0.112,0.865,0.633,0.753,1.159
					c-2.281,10.646-9.161,19.624-18.881,24.643C64.423,80.303,64.271,80.339,64.121,80.339z"/>
			</g>
			<g id="XMLID_308_">
				<path style="fill:#1E1E1E;" d="M53.568,83.806c-0.471,0-0.887-0.342-0.963-0.824c-0.086-0.533,0.277-1.034,0.812-1.117
					c1.471-0.236,2.941-0.569,4.364-0.998c0.519-0.151,1.063,0.139,1.219,0.659c0.153,0.519-0.141,1.062-0.657,1.216
					c-1.509,0.45-3.062,0.803-4.618,1.053C53.674,83.8,53.62,83.806,53.568,83.806z"/>
			</g>
		</g>
		<g id="XMLID_300_">
			<path style="fill:#1E1E1E;" d="M14.221,38.732c-0.094,0-0.19-0.013-0.285-0.042c-0.517-0.157-0.808-0.703-0.651-1.22
				c3.343-11.014,11.827-19.873,22.693-23.698c0.508-0.178,1.067,0.089,1.247,0.598c0.179,0.509-0.089,1.067-0.598,1.247
				c-10.282,3.619-18.308,12-21.472,22.422C15.027,38.461,14.64,38.732,14.221,38.732z"/>
		</g>
		<g id="XMLID_536_">
			<g id="XMLID_307_">
				<path style="fill:#1E1E1E;" d="M47.057,46.267c-2.283,0-4.142-1.859-4.142-4.143c0-2.284,1.859-4.143,4.142-4.143
					c2.285,0,4.143,1.858,4.143,4.143C51.2,44.407,49.342,46.267,47.057,46.267z M47.057,39.936c-1.206,0-2.187,0.981-2.187,2.188
					c0,1.205,0.981,2.188,2.187,2.188c1.207,0,2.189-0.982,2.189-2.188C49.246,40.917,48.264,39.936,47.057,39.936z"/>
			</g>
			<g id="XMLID_311_">
				<path style="fill:#1E1E1E;" d="M33.139,73.338c-2.284,0-4.143-1.86-4.143-4.144s1.859-4.143,4.143-4.143
					c2.283,0,4.142,1.859,4.142,4.143S35.422,73.338,33.139,73.338z M33.139,67.006c-1.208,0-2.189,0.98-2.189,2.188
					s0.981,2.188,2.189,2.188c1.204,0,2.187-0.98,2.187-2.188S34.343,67.006,33.139,67.006z"/>
			</g>
			<g id="XMLID_312_">
				<path style="fill:#1E1E1E;" d="M73.305,46.267c-2.285,0-4.143-1.859-4.143-4.143c0-2.284,1.857-4.143,4.143-4.143
					c2.284,0,4.143,1.858,4.143,4.143C77.447,44.407,75.589,46.267,73.305,46.267z M73.305,39.936c-1.206,0-2.188,0.981-2.188,2.188
					c0,1.205,0.982,2.188,2.188,2.188s2.188-0.982,2.188-2.188C75.492,40.917,74.511,39.936,73.305,39.936z"/>
			</g>
		</g>
	</g>
</g>
<g style="display:none;">
	<defs>
		<rect id="SVGID_9_" width="96" height="96"/>
	</defs>
	<clipPath id="SVGID_10_" style="display:inline;">
		<use xlink:href="#SVGID_9_"  style="overflow:visible;"/>
	</clipPath>
	<g style="display:inline;clip-path:url(#SVGID_10_);">
		<path style="fill:#414141;" d="M3.532,72.309l4.19,2.031c3.147,1.354,6.271,0.255,7.783-2.692l4.069-8.38
			c0.678-1.402,0.774-2.979,0.264-4.45c-0.492-1.418-1.498-2.562-2.827-3.248c2.32-0.565,4.157-2.514,4.426-5.018l1.001-9.268
			c0.166-1.526-0.272-3.031-1.228-4.233c1.41-0.615,2.507-1.731,3.083-3.159l3.485-8.644c0.501-1.242,0.555-2.588,0.173-3.852
			c1.323-0.006,2.592-0.459,3.632-1.302l7.232-5.875c2.491-2.028,2.871-5.705,0.847-8.192L36.727,2.41
			c-2.025-2.494-5.701-2.871-8.19-0.852l-7.233,5.878c-1.205,0.979-1.894,2.299-2.121,3.922c-0.217,1.565,0.551,3.857,1.749,4.851
			c-1.902-0.904-3.698-0.885-5.154-0.242c-1.422,0.627-2.538,1.738-3.121,3.18l-3.484,8.644c-0.583,1.442-0.566,3.025,0.042,4.46
			c0.372,0.874,0.96,1.61,1.678,2.197c-0.913,0.18-1.78,0.576-2.525,1.177c-1.212,0.973-1.973,2.365-2.139,3.913l-1.001,9.258
			c-0.208,1.921,0.558,3.718,1.889,4.93c-0.924,0.558-1.704,1.377-2.21,2.417l-4.071,8.386c-0.678,1.396-0.773,2.979-0.263,4.449
			C1.082,70.446,2.133,71.63,3.532,72.309z M27.552,19.047c-0.927-0.095-1.762-0.546-2.351-1.27l-2.937-3.616
			c-0.587-0.729-0.859-1.639-0.761-2.567c0.095-0.928,0.545-1.76,1.269-2.347l7.233-5.877c1.39-1.152,3.629-1.064,4.916,0.508
			l2.938,3.614c1.213,1.497,0.984,3.702-0.509,4.917l-7.232,5.874C29.393,18.873,28.492,19.146,27.552,19.047z M17.587,34.951
			l-4.319-1.741c-0.002,0-0.002,0-0.002-0.005c-0.864-0.345-1.543-1.009-1.906-1.864c-0.367-0.861-0.375-1.811-0.025-2.676
			l3.484-8.643c0.806-1.854,2.772-2.618,4.545-1.934l4.32,1.742c0.866,0.351,1.545,1.016,1.91,1.875
			c0.366,0.859,0.377,1.807,0.025,2.67l-3.484,8.644C21.322,34.87,19.364,35.681,17.587,34.951z M15.272,53.399l-4.629-0.501
			c-1.916-0.205-3.306-1.932-3.098-3.849l1.001-9.267c0.186-1.701,1.694-3.289,3.848-3.094l4.632,0.5
			c0.928,0.102,1.763,0.556,2.348,1.284c0.583,0.723,0.85,1.637,0.75,2.56l-1.001,9.273C18.919,52.212,17.219,53.586,15.272,53.399z
			 M4.551,70.213c-0.842-0.408-1.472-1.119-1.777-2c-0.305-0.882-0.25-1.829,0.157-2.667l4.072-8.384
			c0.842-1.708,2.874-2.463,4.667-1.619l4.19,2.037c0.842,0.41,1.473,1.119,1.777,2.004c0.304,0.876,0.25,1.827-0.16,2.666
			l-4.07,8.379c-0.839,1.728-2.942,2.457-4.668,1.619L4.551,70.213z"/>
		<path style="fill:#414141;" d="M72.409,94.451l7.234-5.878c1.204-0.975,1.941-2.371,2.119-3.919
			c0.176-1.523-0.25-3.157-1.748-4.853c2.456,1.216,4.415,0.563,5.15,0.244c1.438-0.627,2.54-1.738,3.124-3.182l3.486-8.644
			c0.583-1.44,0.566-3.024-0.045-4.458c-0.372-0.881-0.963-1.616-1.683-2.204c0.918-0.179,1.785-0.568,2.533-1.173
			c1.21-0.972,1.969-2.364,2.137-3.906l0.999-9.263c0.347-3.195-1.967-6.074-5.161-6.424l-4.633-0.501
			c-3.203-0.264-6.07,1.979-6.414,5.167l-1.003,9.263c-0.17,1.58,0.32,3.079,1.236,4.234c-1.416,0.613-2.512,1.733-3.088,3.162
			l-3.487,8.646c-0.505,1.252-0.557,2.611-0.164,3.884c-1.327,0.019-2.599,0.426-3.646,1.271l-7.229,5.87
			c-2.489,2.033-2.871,5.708-0.847,8.197l2.938,3.616C66.199,96.039,69.821,96.504,72.409,94.451z M88.553,59.322l-4.634-0.5
			c-1.911-0.205-3.303-1.934-3.098-3.849l1.004-9.263c0.207-1.916,1.933-3.313,3.851-3.099l4.629,0.501
			c1.917,0.204,3.304,1.933,3.099,3.848l-1,9.268c-0.102,0.923-0.558,1.762-1.285,2.344C90.393,59.154,89.515,59.459,88.553,59.322z
			 M77.259,76.182c-0.866-0.35-1.54-1.014-1.905-1.869c-0.367-0.858-0.377-1.811-0.027-2.673l3.487-8.646
			c0.78-1.827,2.732-2.614,4.545-1.934l4.325,1.742c0,0,0,0,0,0.006c1.799,0.734,2.632,2.702,1.929,4.538l-3.483,8.646
			c-0.346,0.864-1.014,1.542-1.872,1.906c-0.859,0.369-1.814,0.374-2.672,0.026L77.259,76.182z M78.176,86.764l-7.231,5.879
			c-1.494,1.224-3.704,0.979-4.919-0.506l-2.938-3.616c-1.213-1.496-0.986-3.701,0.513-4.92l7.228-5.87
			c1.419-1.154,3.633-1.066,4.916,0.504l2.939,3.618c0.587,0.729,0.858,1.638,0.762,2.566C79.351,85.345,78.899,86.18,78.176,86.764
			z"/>
		<path style="fill:#414141;" d="M62.577,50.612l3.021-8.93c0.348-1.043,0.376-2.116,0.146-3.116
			c1.825,0.113,3.678-0.627,4.905-2.16l5.808-7.093c1.712-2.052,1.761-4.945,0.307-7.045c2.468,0.242,4.916-1.122,5.932-3.522
			l3.633-8.699c1.218-2.972-0.211-6.377-3.181-7.595l-4.188-1.744c-2.956-1.252-6.381,0.133-7.632,3.089l-3.635,8.699
			c-0.587,1.438-0.547,2.971-0.023,4.313c-1.477,0.163-2.895,0.874-3.896,2.123l-5.805,7.096c-1.655,1.979-1.76,4.744-0.457,6.822
			c-3.011-0.98-6.276,0.631-7.312,3.637l-3.02,8.93c-1.008,3.049,0.652,6.349,3.699,7.356l4.3,1.451
			C58.212,55.269,61.533,53.649,62.577,50.612z M75.97,19.691l-4.211-1.755c-1.783-0.73-2.64-2.774-1.908-4.557l3.622-8.672
			c0.75-1.773,2.804-2.605,4.578-1.854l4.214,1.756c1.785,0.73,2.64,2.772,1.907,4.556l-3.623,8.673
			C79.801,19.612,77.744,20.444,75.97,19.691z M63.922,35.483l-3.72-3.042c-1.479-1.236-1.68-3.445-0.448-4.923l5.833-7.127
			c1.205-1.501,3.408-1.742,4.912-0.537l3.723,3.047c1.479,1.234,1.68,3.443,0.448,4.923l-5.835,7.124
			C67.629,36.449,65.425,36.691,63.922,35.483z M55.938,52.021l-4.328-1.459c-1.829-0.605-2.823-2.585-2.219-4.415l3.013-8.902
			c0.624-1.823,2.617-2.795,4.438-2.167l4.329,1.46c1.827,0.604,2.822,2.583,2.216,4.414l-3.011,8.901
			C59.749,51.676,57.758,52.649,55.938,52.021z"/>
		<path style="fill:#414141;" d="M30.836,77.139c0.988,1.199,2.358,1.889,3.79,2.062c-0.556,1.38-0.598,2.963,0.028,4.439
			l3.511,8.469c1.197,2.978,4.598,4.422,7.576,3.223l4.483-1.858c2.955-1.258,4.339-4.683,3.08-7.635l-3.508-8.472
			c-0.998-2.479-3.525-3.888-6.062-3.599c1.378-2.062,1.333-4.863-0.301-6.893l-5.949-7.313c-2.045-2.479-5.722-2.828-8.197-0.787
			l-3.518,2.867c-2.499,2.014-2.898,5.685-0.884,8.185L30.836,77.139z M38.646,78.147l4.445-1.842
			c1.786-0.72,3.828,0.148,4.548,1.933l3.521,8.507c0.753,1.771-0.074,3.83-1.85,4.585l-4.44,1.839
			c-1.789,0.72-3.828-0.147-4.548-1.932l-3.527-8.506C36.044,80.957,36.874,78.9,38.646,78.147z M32.632,75.658l-5.931-7.289
			c-1.207-1.504-0.971-3.704,0.53-4.914l3.54-2.883c1.487-1.225,3.691-1.015,4.917,0.473l5.931,7.289
			c1.208,1.502,0.972,3.703-0.53,4.911L37.55,76.13C36.064,77.357,33.859,77.145,32.632,75.658z"/>
	</g>
</g>
<g>
	<defs>
		<rect id="SVGID_11_" width="96" height="96"/>
	</defs>
	<clipPath id="SVGID_12_">
		<use xlink:href="#SVGID_11_"  style="overflow:visible;"/>
	</clipPath>
	<g style="clip-path:url(#SVGID_12_);">
		<path style="fill:#ADFFD9;" d="M88,48c0,22.096-17.91,40-40,40C25.917,88,8,70.096,8,48C8,25.908,25.917,8,48,8
			C70.09,8,88,25.908,88,48z"/>
	</g>
	<g style="clip-path:url(#SVGID_12_);">
		<path d="M38.483,66.712L38.483,66.712c-0.815,0-1.596-0.323-2.172-0.9l-12.249-12.26c-1.199-1.2-1.199-3.146,0.001-4.345
			c1.201-1.198,3.146-1.2,4.346,0.002l10.077,10.086L67.592,30.19c1.2-1.199,3.144-1.199,4.344,0c1.201,1.201,1.201,3.145,0,4.344
			l-31.28,31.278C40.08,66.389,39.297,66.712,38.483,66.712z"/>
	</g>
</g>
</svg>
