<?xml version="1.0" encoding="iso-8859-1"?>
<!-- Generator: Adobe Illustrator 16.0.0, SVG Export Plug-In . SVG Version: 6.00 Build 0)  -->
<!DOCTYPE svg PUBLIC "-//W3C//DTD SVG 1.1//EN" "http://www.w3.org/Graphics/SVG/1.1/DTD/svg11.dtd">
<svg version="1.1" id="Layer_1" xmlns="http://www.w3.org/2000/svg" xmlns:xlink="http://www.w3.org/1999/xlink" x="0px" y="0px"
	 width="96px" height="96px" viewBox="0 0 96 96" style="enable-background:new 0 0 96 96;" xml:space="preserve">
<g>
	<path style="fill:none;stroke:#51544A;stroke-width:3;stroke-linecap:round;stroke-linejoin:round;stroke-miterlimit:10;" d="
		M6.149,48c0,3.747-4.104,8.199-3.076,12.038c1.062,3.973,6.865,5.759,8.678,8.89c1.835,3.176,0.505,9.09,3.367,11.953
		c2.864,2.863,8.777,1.533,11.953,3.368c3.132,1.812,4.918,7.616,8.891,8.678c3.839,1.026,8.291-3.076,12.038-3.076
		s8.198,4.103,12.038,3.076c3.973-1.062,5.758-6.866,8.89-8.678c3.176-1.835,9.09-0.505,11.953-3.368
		c2.862-2.863,1.532-8.777,3.368-11.953c1.812-3.131,7.615-4.917,8.678-8.89c1.026-3.839-3.076-8.291-3.076-12.038
		s4.103-8.199,3.076-12.038c-1.063-3.973-6.866-5.758-8.678-8.89c-1.836-3.176-0.506-9.089-3.368-11.953
		c-2.863-2.862-8.777-1.532-11.953-3.368c-3.132-1.812-4.917-7.616-8.89-8.678C56.198,2.046,51.747,6.149,48,6.149
		s-8.199-4.103-12.038-3.076c-3.973,1.062-5.759,6.866-8.891,8.678c-3.176,1.835-9.089,0.505-11.953,3.368
		c-2.862,2.864-1.532,8.777-3.367,11.953c-1.813,3.132-7.616,4.917-8.678,8.89C2.046,39.801,6.149,44.253,6.149,48z"/>
	<g id="green_chemistry_-_eco_chemical_5_">
		<path style="fill:none;stroke:#51544A;stroke-width:3;stroke-linecap:round;stroke-linejoin:round;stroke-miterlimit:10;" d="
			M58.167,46.607l-4.907-9.952c-0.613-1.058-0.94-2.259-0.94-3.483v-6.772"/>
		<path style="fill:none;stroke:#51544A;stroke-width:3;stroke-linecap:round;stroke-linejoin:round;stroke-miterlimit:10;" d="
			M43.682,26.399v6.772c0,1.225-0.328,2.426-0.943,3.483c0,0-14.551,27.306-14.609,31.083c-0.062,3.876,3.254,7.046,7.13,7.046
			h25.482c3.876,0,7.189-3.17,7.129-7.046c-0.048-3.075-1.756-6.243-3.771-9.62"/>
		<path style="fill:none;stroke:#51544A;stroke-width:3;stroke-linecap:round;stroke-linejoin:round;stroke-miterlimit:10;" d="
			M45.191,26.399h-1.51c-0.957,0-1.73-0.773-1.73-1.727v-1.727c0-0.955,0.773-1.73,1.73-1.73h8.638c0.954,0,1.729,0.775,1.729,1.73
			v1.727c0,0.954-0.774,1.727-1.729,1.727h-1.729"/>
	</g>
	<path style="fill:none;stroke:#51544A;stroke-width:3;stroke-linecap:round;stroke-linejoin:round;stroke-miterlimit:10;" d="
		M42.161,55.951l2.887,7.953c0.532,2,3.035,2.662,4.505,1.19L72.009,42.64"/>
</g>
</svg>
