<?xml version="1.0" encoding="utf-8"?>
<!-- Generator: Adobe Illustrator 16.0.0, SVG Export Plug-In . SVG Version: 6.00 Build 0)  -->
<!DOCTYPE svg PUBLIC "-//W3C//DTD SVG 1.1//EN" "http://www.w3.org/Graphics/SVG/1.1/DTD/svg11.dtd">
<svg version="1.1" id="Layer_1" xmlns="http://www.w3.org/2000/svg" xmlns:xlink="http://www.w3.org/1999/xlink" x="0px" y="0px"
	 width="24px" height="24px" viewBox="0 0 24 24" enable-background="new 0 0 24 24" xml:space="preserve">
<g>
	<defs>
		<rect id="SVGID_1_" width="24" height="24"/>
	</defs>
	<clipPath id="SVGID_2_">
		<use xlink:href="#SVGID_1_"  overflow="visible"/>
	</clipPath>
	
		<path clip-path="url(#SVGID_2_)" fill="none" stroke="#EAA794" stroke-width="1.5" stroke-linecap="round" stroke-linejoin="round" stroke-miterlimit="10" d="
		M4.929,19.07L4.929,19.07c-1.952-1.952-1.952-5.118,0-7.07L12,4.928c1.953-1.952,5.119-1.952,7.072,0
		c1.951,1.954,1.951,5.12,0,7.072L12,19.07C10.048,21.023,6.882,21.023,4.929,19.07z"/>
	
		<path clip-path="url(#SVGID_2_)" fill="none" stroke="#EAA794" stroke-width="1.5" stroke-linecap="round" stroke-linejoin="round" stroke-miterlimit="10" d="
		M8.465,18.035c-0.668,0-1.296-0.26-1.769-0.732c-0.974-0.974-0.974-2.561,0-3.535l7.072-7.072c0.471-0.472,1.1-0.732,1.768-0.732
		s1.296,0.26,1.77,0.732c0.973,0.975,0.975,2.562,0,3.536l-7.073,7.073C9.76,17.775,9.132,18.035,8.465,18.035z"/>
</g>
</svg>
