<?xml version="1.0" encoding="iso-8859-1"?>
<!-- Generator: Adobe Illustrator 16.0.0, SVG Export Plug-In . SVG Version: 6.00 Build 0)  -->
<!DOCTYPE svg PUBLIC "-//W3C//DTD SVG 1.1//EN" "http://www.w3.org/Graphics/SVG/1.1/DTD/svg11.dtd">
<svg version="1.1" id="Layer_1" xmlns="http://www.w3.org/2000/svg" xmlns:xlink="http://www.w3.org/1999/xlink" x="0px" y="0px"
	 width="96px" height="96px" viewBox="0 0 96 96" style="enable-background:new 0 0 96 96;" xml:space="preserve">
<path style="fill:none;stroke:#51544A;stroke-width:3;stroke-linecap:round;stroke-linejoin:round;stroke-miterlimit:10;" d="M48,48
	l-13.5,9C22.5,64.5,18,75,18,84v10.5"/>
<line style="fill:none;stroke:#51544A;stroke-width:3;stroke-linecap:round;stroke-linejoin:round;stroke-miterlimit:10;" x1="78" y1="94.5" x2="24" y2="94.5"/>
<line style="fill:none;stroke:#51544A;stroke-width:3;stroke-linecap:round;stroke-linejoin:round;stroke-miterlimit:10;" x1="78" y1="85.5" x2="24" y2="85.5"/>
<line style="fill:none;stroke:#51544A;stroke-width:3;stroke-linecap:round;stroke-linejoin:round;stroke-miterlimit:10;" x1="76.961" y1="76.5" x2="25.312" y2="76.5"/>
<line style="fill:none;stroke:#51544A;stroke-width:3;stroke-linecap:round;stroke-linejoin:round;stroke-miterlimit:10;" x1="72.732" y1="67.5" x2="30.75" y2="67.5"/>
<line style="fill:none;stroke:#51544A;stroke-width:3;stroke-linecap:round;stroke-linejoin:round;stroke-miterlimit:10;" x1="63.744" y1="58.5" x2="43.063" y2="58.5"/>
<path style="fill:none;stroke:#51544A;stroke-width:3;stroke-linecap:round;stroke-linejoin:round;stroke-miterlimit:10;" d="M48,48
	l13.5-9C73.5,31.5,78,21,78,12V1.5"/>
<path style="fill:none;stroke:#51544A;stroke-width:3;stroke-linecap:round;stroke-linejoin:round;stroke-miterlimit:10;" d="
	M42,43.5L34.5,39C22.5,31.5,18,21,18,12V1.5"/>
<path style="fill:none;stroke:#51544A;stroke-width:3;stroke-linecap:round;stroke-linejoin:round;stroke-miterlimit:10;" d="
	M54,52.5l7.5,4.5C73.5,64.5,78,75,78,84v10.5"/>
<line style="fill:none;stroke:#51544A;stroke-width:3;stroke-linecap:round;stroke-linejoin:round;stroke-miterlimit:10;" x1="18" y1="1.5" x2="72" y2="1.5"/>
<line style="fill:none;stroke:#51544A;stroke-width:3;stroke-linecap:round;stroke-linejoin:round;stroke-miterlimit:10;" x1="18" y1="10.5" x2="72" y2="10.5"/>
<line style="fill:none;stroke:#51544A;stroke-width:3;stroke-linecap:round;stroke-linejoin:round;stroke-miterlimit:10;" x1="19.04" y1="19.5" x2="70.688" y2="19.5"/>
<line style="fill:none;stroke:#51544A;stroke-width:3;stroke-linecap:round;stroke-linejoin:round;stroke-miterlimit:10;" x1="23.267" y1="28.5" x2="65.25" y2="28.5"/>
<line style="fill:none;stroke:#51544A;stroke-width:3;stroke-linecap:round;stroke-linejoin:round;stroke-miterlimit:10;" x1="32.254" y1="37.5" x2="52.938" y2="37.5"/>
</svg>
